<svg width="17" height="11" viewBox="0 0 17 11" fill="none" xmlns="http://www.w3.org/2000/svg">
<path d="M8.60402 5.31455C8.53647 5.36224 8.44654 5.36344 8.37774 5.31757L1.701 0.86641C1.53636 0.756645 1.61406 0.5 1.81194 0.5H14.7945C14.9896 0.5 15.0693 0.75086 14.9098 0.863393L8.60402 5.31455Z" fill="black"/>
<path d="M8.78834 6.40848L16.1847 1.18755C16.3171 1.09403 16.5 1.18878 16.5 1.35095V10.3C16.5 10.4105 16.4105 10.5 16.3 10.5H0.2C0.0895431 10.5 0 10.4105 0 10.3V1.30796C0 1.14822 0.178029 1.05294 0.31094 1.14155L8.22265 6.41603C8.39464 6.53069 8.61946 6.52769 8.78834 6.40848Z" fill="black"/>
</svg>
