<svg width="17" height="11" viewBox="0 0 17 11" fill="none" xmlns="http://www.w3.org/2000/svg">
<path d="M9.10402 5.31455C9.03647 5.36224 8.94654 5.36344 8.87774 5.31757L2.201 0.86641C2.03636 0.756645 2.11406 0.5 2.31194 0.5H15.2945C15.4896 0.5 15.5693 0.75086 15.4098 0.863393L9.10402 5.31455Z" fill="#2076D4"/>
<path d="M9.28834 6.40848L16.6847 1.18755C16.8171 1.09403 17 1.18878 17 1.35095V10.3C17 10.4105 16.9105 10.5 16.8 10.5H0.7C0.589543 10.5 0.5 10.4105 0.5 10.3V1.30796C0.5 1.14822 0.678029 1.05294 0.81094 1.14155L8.72265 6.41603C8.89464 6.53069 9.11946 6.52769 9.28834 6.40848Z" fill="#2076D4"/>
</svg>
