<svg width="47" height="43" viewBox="0 0 47 43" fill="none" xmlns="http://www.w3.org/2000/svg">
<g clip-path="url(#clip0_242_45)">
<path d="M46.4982 21.2063L38.0974 16.2661V29.9951H46.9591V22.0163C46.9591 21.6835 46.7832 21.3745 46.4982 21.2063Z" fill="#1A237E"/>
<path d="M35.1345 3.54833H45.7451V2.23629C45.7451 1.10306 44.8361 0.185349 43.7148 0.185349H16.0716C14.9503 0.185349 14.04 1.10306 14.04 2.23629V3.54833H24.6025H35.1345Z" fill="#0C4999"/>
<path d="M35.1345 32.7755H43.7136C44.8349 32.7755 45.7451 31.8577 45.7451 30.7245V22.6403H35.1345V32.7755Z" fill="#0F73D9"/>
<path d="M14.0413 22.6415V30.7257C14.0413 31.8577 14.9503 32.7766 16.0728 32.7766H24.6038V22.6427L14.0413 22.6415Z" fill="#0F439D"/>
<path d="M35.1345 3.54832H45.7451V13.0535H35.1345V3.54832Z" fill="#2ECDFD"/>
<path d="M14.0413 3.54832H24.6038V13.0535H14.0413V3.54832Z" fill="#1C5FB0"/>
<path d="M24.6025 22.6415H35.1345V32.7755H24.6025V22.6415Z" fill="#1467C7"/>
<path d="M24.6025 3.54832H35.1345V13.0535H24.6025V3.54832Z" fill="#1690D5"/>
<path d="M35.1345 13.0535H45.7451V22.6403H35.1345V13.0535Z" fill="#1BB4FF"/>
<path d="M14.0413 13.0535H24.6038V22.6403H14.0413V13.0535Z" fill="#074DAF"/>
<path d="M24.6025 13.0535H35.1345V22.6403H24.6025V13.0535Z" fill="#2076D4"/>
<path d="M13.4606 42.8147C14.0037 42.8147 44.9781 42.8147 44.9781 42.8147C46.0724 42.8147 46.9592 41.9194 46.9592 40.8146V22.0187C46.9592 22.0187 46.924 22.7978 44.9053 23.9334C43.3805 24.7908 12.6431 42.3007 12.6431 42.3007C12.6431 42.3007 12.9175 42.8147 13.4606 42.8147Z" fill="#2ED0FF"/>
<path d="M44.9406 42.8111C44.7518 42.8111 13.7516 42.8147 13.7516 42.8147C12.6573 42.8147 11.7705 41.9194 11.7705 40.8146V22.7635L46.2121 42.3753C45.9248 42.6074 45.56 42.8111 44.9406 42.8111Z" fill="#139FE2"/>
<path d="M21.5282 33.3415H2.01252C0.924011 33.3415 0.0407715 32.4498 0.0407715 31.3509V11.6491C0.0407715 10.5502 0.924011 9.65852 2.01252 9.65852H21.5282C22.6167 9.65852 23.5 10.5502 23.5 11.6491V31.3509C23.5 32.4498 22.6167 33.3415 21.5282 33.3415Z" fill="#00488D"/>
<path d="M11.6694 15.2643C7.99687 15.2643 5.78467 18.0968 5.78467 21.5912C5.78467 25.0856 7.98866 27.9169 11.6694 27.9169C15.3513 27.9169 17.5541 25.0844 17.5541 21.5912C17.5541 18.0968 15.3419 15.2643 11.6694 15.2643ZM11.6694 25.7819C9.58623 25.7819 8.34055 23.9062 8.34055 21.5912C8.34055 19.2762 9.5921 17.4005 11.6694 17.4005C13.7467 17.4005 14.9994 19.2774 14.9994 21.5912C14.9994 23.905 13.7514 25.7819 11.6694 25.7819Z" fill="white"/>
</g>
<defs>
<clipPath id="clip0_242_45">
<rect width="47" height="43" fill="white"/>
</clipPath>
</defs>
</svg>
